<?xml version="1.0" encoding="UTF-8" standalone="no"?>
<svg id="svg4253" xmlns="http://www.w3.org/2000/svg" height="24" width="24" version="1.1" viewBox="0 0 22.5 22.5">
 <path id="path4255" fill="none" d="m0-1.5h24v24h-24z"/>
 <path id="path4873" fill="#fff" d="m4.25 2.25c-1.1 0-2 0.9-2 2v14c0 1.1 0.9 2 2 2h14c1.1 0 2-0.9 2-2v-14c0-1.1-0.9-2-2-2zm7 5.0586c2.6271 0 4.8703 1.6348 5.7793 3.9414-0.909 2.307-3.152 3.941-5.779 3.941-2.6271 0-4.8703-1.634-5.7793-3.941 0.909-2.3066 3.1522-3.9414 5.7793-3.9414zm0 1.3145c-1.4502 0-2.627 1.1768-2.627 2.627s1.1768 2.627 2.627 2.627 2.627-1.1768 2.627-2.627-1.1768-2.627-2.627-2.627zm0 1.0508c0.8722 0 1.5762 0.70397 1.5762 1.5762 0 0.8722-0.70397 1.5762-1.5762 1.5762-0.8722 0-1.5762-0.70397-1.5762-1.5762 0-0.8722 0.70397-1.5762 1.5762-1.5762z"/>
 <path id="path4857" fill="none" d="m5.6949 4.1949h12.61v12.61h-12.61z"/>
</svg>
