<?xml version="1.0" encoding="UTF-8" standalone="no"?>
<svg id="svg4552" xmlns="http://www.w3.org/2000/svg" height="24" width="24" version="1.1" viewBox="0 0 24 24">
 <path id="path822" fill="#fff" d="m12 2c-5.52 0-10 4.48-10 10s4.48 10 10 10 10-4.48 10-10-4.48-10-10-10zm0 2c4.41 0 8 3.59 8 8s-3.59 8-8 8-8-3.59-8-8 3.59-8 8-8z"/>
 <g id="g4555" fill="#fff">
  <path id="path824" d="m12.91 17h-2v4h2z"/>
  <path id="path824-3" d="m12.91 3h-2v4h2z"/>
 </g>
 <g id="g4551" fill="#fff" transform="rotate(90 14.74 11.443)">
  <path id="path824-6" d="m16.297 19.183h-2v4h2z"/>
  <path id="path824-3-7" d="m16.297 5.1832h-2v4h2z"/>
 </g>
 <path id="path4557" d="m14.605 13.069-1.8603 0.02612-1.0331 1.5473-0.5997-1.7612-1.7908-0.50441 1.4897-1.1146-0.07366-1.859 1.5204 1.0723 1.7453-0.64452-0.55002 1.7773z" transform="rotate(98.555 11.995 11.912)" stroke-width="2.1354" fill="#fff"/>
</svg>
