<?xml version="1.0" encoding="UTF-8" standalone="no"?>
<svg id="svg4296" xmlns="http://www.w3.org/2000/svg" fill="#FFFFFF" height="24" width="24" version="1.1" viewBox="0 0 24 24">
 <path id="path4298" d="m17.27 2.7199c0.51493 0 1.0053 0.078466 1.4712 0.22559-1.9911 0.62283-3.4329 2.4815-3.4329 4.6785 0 2.1971 1.4418 4.0557 3.4329 4.6785-0.46589 0.14712-0.95631 0.22559-1.4712 0.22559-2.7071 0-4.9041-2.1971-4.9041-4.9041 0-2.7071 2.1971-4.9041 4.9041-4.9041z"/>
 <path id="path4300" fill="none" d="m24 0h-24v24h24z"/>
 <path id="path5165" fill="#fff" d="m4.8794 19.5v2h14.07v-2h-14.07z"/>
 <path id="path5163" fill="#fff" d="m2 14.5v2h20v-2h-20z"/>
 <path id="path4902" fill="none" d="m0 4h24v24h-24z"/>
 <path id="path4900-7" fill="#fff" d="m4.1864 9.5763v2h7.0715v-2h-7.0715z"/>
</svg>
