<?xml version="1.0" encoding="UTF-8" standalone="no"?>
<svg id="svg4595" xmlns="http://www.w3.org/2000/svg" height="24" width="24" version="1.1" viewBox="0 0 24 24">
 <path id="path4587" d="m0 0h24v24h-24v-24z" fill="none"/>
 <path id="path4589" fill="#fff" d="m4 6h-2v14c0 1.1 0.9 2 2 2h14v-2h-14v-14z"/>
 <path id="path4591" d="m0 0h24v24h-24v-24z" fill="none"/>
 <path id="path4593" fill="#fff" d="m20 2h-12c-1.1 0-2 0.9-2 2v12c0 1.1 0.9 2 2 2h12c1.1 0 2-0.9 2-2v-12c0-1.1-0.9-2-2-2zm0 10l-2.5-1.5-2.5 1.5v-8h5v8z"/>
</svg>
