<?xml version="1.0" encoding="UTF-8" standalone="no"?>
<svg id="svg4553" xmlns="http://www.w3.org/2000/svg" height="24" width="24" version="1.1" viewBox="0 0 24 24">
 <circle id="circle4547" cy="12" cx="12" r="3.2" fill="#fff"/>
 <path id="path4549" fill="#fff" d="m9 2l-1.83 2h-3.17c-1.1 0-2 0.9-2 2v12c0 1.1 0.9 2 2 2h16c1.1 0 2-0.9 2-2v-12c0-1.1-0.9-2-2-2h-3.17l-1.83-2h-6zm3 15c-2.76 0-5-2.24-5-5s2.24-5 5-5 5 2.24 5 5-2.24 5-5 5z"/>
 <path id="path4551" d="m0 0h24v24h-24z" fill="none"/>
</svg>
