<?xml version="1.0" encoding="UTF-8" standalone="no"?>
<svg id="svg4355" xmlns="http://www.w3.org/2000/svg" viewBox="0 0 24 24" height="24" width="24" version="1.1">
 <path id="path5804" d="m8 2-1 1v2l1.5 7 0.5 8 0.5 0.5v2h5v-2l0.5-0.5 0.5-8 1.5-7v-2l-1-1zm0 1h8v2h-8zm3.75 3.5h0.5c0.1385 0 0.25 0.1115 0.25 0.25v0.5c0 0.1385-0.1115 0.25-0.25 0.25h-0.5c-0.138 0-0.25-0.1115-0.25-0.25v-0.5c0-0.1385 0.112-0.25 0.25-0.25zm-2.5 0.5h0.5c0.1385 0 0.25 0.1115 0.25 0.25v0.5c0 0.1385-0.1115 0.25-0.25 0.25h-0.5c-0.1385 0-0.25-0.1115-0.25-0.25v-0.5c0-0.1385 0.1115-0.25 0.25-0.25zm5 0h0.5c0.138 0 0.25 0.1115 0.25 0.25v0.5c0 0.1385-0.112 0.25-0.25 0.25h-0.5c-0.138 0-0.25-0.1115-0.25-0.25v-0.5c0-0.1385 0.112-0.25 0.25-0.25zm-3.2617 1.375c0.0039-0.0001832 0.0078-0.0001832 0.01172 0h2c0.11053 0.0008985 0.1656 0.13428 0.08789 0.21289l-1 1c-0.0487 0.048149-0.12708 0.048149-0.17578 0l-1-1c-0.075-0.0747-0.029-0.2026 0.076-0.2129zm-0.50195 0.5c0.03773-0.00367 0.07509 0.00998 0.10156 0.037109l1 1c0.04815 0.048702 0.04815 0.12708 0 0.17578l-1 1c-0.079 0.078-0.212 0.023-0.213-0.088v-2c-0.000378-0.064028 0.04768-0.11799 0.11133-0.125zm3.0098 0c0.071-0.0022 0.129 0.0544 0.129 0.125v2c-0.000896 0.11054-0.13428 0.1656-0.21289 0.08789l-1-1c-0.04815-0.0487-0.04815-0.12708 0-0.17578l1-1c0.02228-0.022576 0.0523-0.035839 0.08399-0.037109zm-1.5098 1.5c0.03773-0.0037 0.07508 0.01 0.10156 0.03711l1 1c0.0777 0.07861 0.02264 0.21199-0.08789 0.21289h-2c-0.11053-0.0009-0.1656-0.13428-0.08789-0.21289l1-1c0.01979-0.02046 0.04598-0.03351 0.07422-0.03711zm-2.236 2.125h0.5c0.1385 0 0.25 0.1115 0.25 0.25v0.5c0 0.1385-0.1115 0.25-0.25 0.25h-0.5c-0.1385 0-0.25-0.112-0.25-0.25v-0.5c0-0.1385 0.1115-0.25 0.25-0.25zm2 0h0.5c0.1385 0 0.25 0.1115 0.25 0.25v0.5c0 0.1385-0.1115 0.25-0.25 0.25h-0.5c-0.1385 0-0.25-0.1115-0.25-0.25v-0.5c0-0.1385 0.1115-0.25 0.25-0.25zm2 0h0.5c0.1385 0 0.25 0.1115 0.25 0.25v0.5c0 0.1385-0.1115 0.25-0.25 0.25h-0.5c-0.1385 0-0.25-0.1115-0.25-0.25v-0.5c0-0.1385 0.1115-0.25 0.25-0.25zm-4 2h0.5c0.1385 0 0.25 0.1115 0.25 0.25v0.5c0 0.1385-0.1115 0.25-0.25 0.25h-0.5c-0.1385 0-0.25-0.112-0.25-0.25v-0.5c0-0.1385 0.1115-0.25 0.25-0.25zm2 0h0.5c0.1385 0 0.25 0.1115 0.25 0.25v0.5c0 0.1385-0.1115 0.25-0.25 0.25h-0.5c-0.1385 0-0.25-0.1115-0.25-0.25v-0.5c0-0.1385 0.1115-0.25 0.25-0.25zm2 0h0.5c0.1385 0 0.25 0.1115 0.25 0.25v0.5c0 0.1385-0.1115 0.25-0.25 0.25h-0.5c-0.1385 0-0.25-0.1115-0.25-0.25v-0.5c0-0.1385 0.1115-0.25 0.25-0.25zm-4 2h0.5c0.1385 0 0.25 0.1115 0.25 0.25v0.5c0 0.1385-0.1115 0.25-0.25 0.25h-0.5c-0.1385 0-0.25-0.112-0.25-0.25v-0.5c0-0.1385 0.1115-0.25 0.25-0.25zm2 0h0.5c0.1385 0 0.25 0.1115 0.25 0.25v0.5c0 0.1385-0.1115 0.25-0.25 0.25h-0.5c-0.1385 0-0.25-0.1115-0.25-0.25v-0.5c0-0.1385 0.1115-0.25 0.25-0.25zm2 0h0.5c0.1385 0 0.25 0.1115 0.25 0.25v0.5c0 0.1385-0.1115 0.25-0.25 0.25h-0.5c-0.1385 0-0.25-0.1115-0.25-0.25v-0.5c0-0.1385 0.1115-0.25 0.25-0.25z" fill="#fff"/>
</svg>
