<?xml version="1.0" encoding="UTF-8" standalone="no"?>
<svg id="svg4355" xmlns="http://www.w3.org/2000/svg" viewBox="0 0 24 24" height="24" width="24" version="1.1">
 <path id="path5328" d="m6.0024 12.01c-0.00767 0.0233-0.041634 0.01395-0.054878 0.0029-0.047125-0.03943-0.019737-0.1125 0.020242-0.14516 0.092465-0.07553 0.22585-0.01838 0.28431 0.07103 0.10947 0.16743 0.0092 0.38418-0.15149 0.47464-0.26522 0.1493-0.5893-0.0082-0.71795-0.26301-0.19521-0.38656 0.034339-0.84264 0.4067-1.0157 0.53206-0.24733 1.1454 0.06937 1.3692 0.58346 0.30576 0.70226-0.1136 1.4987-0.79406 1.7796-0.8975 0.37-1.9032-0.168-2.2476-1.04-0.4419-1.118 0.2304-2.36 1.3194-2.7743 1.3654-0.5197 2.87 0.3035 3.3611 1.6353 0.6042 1.639-0.3865 3.434-1.9875 4.008-1.9383 0.695-4.0514-0.48-4.7156-2.376-0.7931-2.265 0.5828-4.7245 2.8021-5.4853 2.6188-0.8978 5.4527 0.6964 6.3167 3.2653 1.009 3-0.82 6.237-3.7666 7.211-3.409 1.128-7.0774-0.955-8.1691-4.306-1.253-3.8456 1.1002-7.9748 4.8839-9.1906 4.3109-1.3852 8.9298 1.2563 10.277 5.5007 1.525 4.8039-1.423 9.9429-6.1562 11.428-1.7351 0.545-3.6112 0.586-5.372 0.137" transform="matrix(.27262 .41370 -.78759 .40955 20.123 6.0751)" stroke="#fff" stroke-linecap="round" stroke-width="1.5143" fill="none"/>
 <path id="path5330" stroke-linejoin="round" d="m5 3 7.3078 10.472" stroke="#fff" stroke-linecap="round" stroke-dasharray="1,2" fill="none"/>
</svg>
