<?xml version="1.0" encoding="UTF-8"?>
<!-- Created with Inkscape (http://www.inkscape.org/) -->
<svg id="svg2" width="24" height="24" version="1.0" xmlns="http://www.w3.org/2000/svg">
 <g id="layer1" transform="translate(0,-24)">
  <path id="path5889" d="m15.155 25.358 0.11266 3.0877-2.7213 1.4831 2.9726 0.84999 0.56332 3.0444 1.7333-2.5673 3.0593 0.39897-1.898-2.4372 1.326-2.7928-2.9033 1.0582zm-6.4826 6.2969-3.3279 3.3306 1.1093 1.1102 2.7733-2.7755h1.664v0.5551l-3.8826 3.3306v3.8857h-3.8826v2.7755h1.1093v-1.1102h4.4373v-2.7755h0.55466l2.2186 2.2204v4.4408h2.7733v-1.1102h-1.1093v-4.4408l-2.2186-2.2204 2.7733-2.7755v2.7755h4.4373v-1.6653h-2.7733v-3.3306l-2.2186-2.2204z" fill="#fff" fill-rule="evenodd" stroke-width="0"/>
 </g>
</svg>
