<?xml version="1.0" encoding="UTF-8" standalone="no"?>
<svg id="svg4355" xmlns="http://www.w3.org/2000/svg" viewBox="0 0 24 24" height="24" width="24" version="1.1">
 <path id="path2331" d="m13.176 2.1523c-0.777 0.2431-1.172 1.084-1.903 1.4178-1.128 0.4562-2.3492 0.6177-3.4841 1.0413 0.3357 0.6292-0.8784 1.046-0.9509 1.7642-0.407 0.2658-0.5797 0.7983-1.0468 1.2123-0.2065 0.8233-1.0153 1.2619-1.3524 2.0623-0.3068 0.7328-0.7339 1.2488-0.8515 1.9998-0.1587 0.971-0.6434 1.758-0.7059 2.698-0.23065 0.26096 0.074861 0.30988-0.21598 0.68155 0.34656 0.20792-0.068352 0.2217 0.20271 0.46422-0.65424 0.21125 0.65172 0.06426 0.13577 0.24638 0.63868 0.05792 0.79301 1.4207 1.0487 1.8407 0.54699 0.0773 0.91955-2.0818 0.29467-1.3569-0.46891-0.32775-0.63067-1.1011 0.18045-0.92318 0.024747-0.53165 0.65864 0.22356 0.61366-0.47249-0.256-0.67599 1.4965-0.96842 0.42806-1.0356 0.65458-0.16196 1.1602-0.68169 1.6736-0.89275 0.69663 0.096-0.20987-0.22632-0.49746-0.02914-0.53677 0.03438-1.1939-0.37518-0.31744-0.27277 0.33892 0.16424 0.85228 0.03677 0.6335-0.42435 0.48117 0.13419 0.6658-0.22947 1.1631 0.05505 0.25105-1.1199 0.55337 1.0548 1.2564 0.23523-0.14799-0.26436-1.4375-1.1004-0.37494-1.1429 1.0088-0.12542-0.00594 0.72367 0.12545 0.60798 0.89987-0.31208 0.84839 0.78224 0.38931 1.1348-0.085499-0.24846-0.92843-0.08201-0.38948 0.04589-0.48953 0.65836 1.7251-0.13515 0.995 0.36512-0.43055-0.02885-1.8983 0.72525-0.75159 0.59239 0.60965-0.40224 1.4731-0.55607 1.9048-0.81497 0.25161 0.60544-1.3095 0.28061-0.70392 0.77493 0.2787-0.40868 1.7718 0.43222 0.84844-0.25361 0.15505-0.61501 0.47182 0.9927 0.98634 0.53642 0.75682-0.02585 1.5889-0.3907 1.9003 0.47567 0.94231-0.0149-0.33445 0.27828-0.55231-0.14059-0.33229 0.08602-0.61594 0.12986-0.27583 0.36094-0.2889 0.19806-0.33274 1.0218-0.01944 0.47731 0.49801-0.67624 1.0837 0.45126 1.8148 0.11049 0.60825 0.14572 2.2735-0.63093 0.97203-0.8959-0.66722 0.06192-0.82514-0.63996-1.635-0.84629-0.53025-0.44317 0.56724-0.82189-0.26989-0.80201-0.48214-0.30712 0.85624-0.35064 0.1998-0.79514-0.0053-0.37639 1.316 0.02219 0.62584-0.48336-0.90838 0.66043-1.0461-1.2529-1.9653-0.72639-0.35809-0.20301-0.86402-0.52558-0.13269-0.31266 0.4777 0.48869 1.1524-0.40715 1.2973 0.05891 0.34624-0.3357 1.2515-0.68882 0.83426-1.0055 0.2006-0.25891 0.80446-0.084362 0.23839-0.00434 0.60416-0.11246 1.4225-0.077289 1.7397 0.26501-0.10416 0.5361 1.4741 0.84571 1.499 0.95321 0.18692 0.32645 0.20344 1.1786-0.30128 0.86852 0.73202-0.33672-0.42754-0.23715-0.05642 0.17677 0.1758 0.03279 0.36183 0.50705 0.42631 0.65809-0.12426 0.23498-0.73697 0.12994-0.22335-0.02902-0.66123-0.36092-0.56474 1.0481-1.329 0.69554-0.33146 0.39307 0.97415-0.30603 0.87254 0.33755 0.62784 0.15845 0.32867-0.34307 0.10115-0.49998 0.59666-0.13082 1.0745 0.60607 0.26774 0.76151-0.22521 0.37621 0.22348 0.73798-0.43416 0.53118-0.76715-0.34956 0.73584-0.27205-0.02024-0.63966-0.23103-0.11204-0.82522-0.19175-0.42024 0.05627-0.1761 0.61684-1.3259 0.21709-1.3947 0.64036 0.33437 0.25654 1.6436-0.33528 1.2831 0.2361-1.1205 0.15044-0.12048 0.9083 0.15138 0.99418-0.61532 0.50972 0.99497 0.34028 0.78832-0.02852 0.25244 0.33589 0.76504 0.95129 1.1038 1.0972 0.48956-0.1648-0.28108-0.26343 0.21395-0.48678-0.16254-0.62122-0.33533 0.86074-0.49452 0.10509-0.11723-0.64155-0.73334-1.0953-1.1121-1.2766 0.15413-0.28449 0.42193-0.60965 0.76422-0.85088 0.10373-0.27177 0.46264 1.0168 0.90893 0.4837-0.8306-0.72788 0.77747 0.25914 0.05786-0.75605-0.05735-0.9064 0.47122-1.9509-0.51399-2.2969-0.21219-0.49358 0.66102-0.41368 0.53595-0.95991 0.42976-0.44582-0.78189-0.18115-0.08888-0.36418 0.70899-0.14505 0.246-1.2643 0.31258-1.8348-0.659-0.5623-0.395-1.615-0.9-2.2129-0.477-0.6439-0.107-1.5889-1.104-1.74-0.866-0.6272-1.912-1.0767-2.373-2.1054-0.773-0.3226-1.632-0.3417-2.441-0.3333z" stroke-width=".069439" fill="#fff"/>
 <path id="path2321" stroke-width=".069439" fill="#fff" d="m16.314 9.793c-0.03107 0.17926 0.32902 0.045844 0 0z"/>
 <path id="path2319" stroke-width=".069439" fill="#fff" d="m15.719 10.068c-0.8152 0.54288 1.0677 0.76594 0.31226 0.15521-0.11347-0.03317-0.20171-0.11564-0.31226-0.15521z"/>
 <path id="path2317" stroke-width=".069439" fill="#fff" d="m16.688 10.215c-1.0546 0.02553 0.76113 0.64412 0.23972 0.07653-0.10576 0.2586-0.09372-0.13478-0.23972-0.07653z"/>
 <path id="path2315" stroke-width=".069439" fill="#fff" d="m15.715 10.693c-0.35827 0.12095 0.21182 0.18248 0 0z"/>
 <path id="path2311" stroke-width=".069439" fill="#fff" d="m16.959 10.871c-0.47472 0.29003 0.4422 0.24317 0 0z"/>
 <path id="path2309" stroke-width=".069439" fill="#fff" d="m14.721 11.047c-0.33961 0.09405 0.45092 0.10789 0 0z"/>
 <path id="path2307" stroke-width=".069439" fill="#fff" d="m15.086 11.18c-0.39259 0.60234 1.3416 0.4571 0.51554 0.21963-0.19168-0.02502-0.33577-0.16275-0.51554-0.21963z"/>
 <path id="path2305" stroke-width=".069439" fill="#fff" d="m16.336 11.18c-0.6328 0.10778 0.48548 0.10598 0 0z"/>
 <path id="path2303" stroke-width=".069439" fill="#fff" d="m18.006 11.336c-0.6514 0.08576 0.14965 1.0419 0.151 0.14977 0.18719-0.08851-0.06408-0.2079-0.151-0.14977z"/>
 <path id="path2301" stroke-width=".069439" fill="#fff" d="m16.008 11.346c-0.0649 0.21113 0.24326 0.0088 0 0z"/>
 <path id="path2299" stroke-width=".069439" fill="#fff" d="m16.297 11.805c-0.06317 0.42832 0.92717 0.26774 0.11651 0.04692l-0.0516-0.03631z"/>
 <path id="path2297" stroke-width=".069439" fill="#fff" d="m16.965 11.824c-0.34188 0.20259 0.40841 0.03604 0 0z"/>
 <path id="path2293" stroke-width=".069439" fill="#fff" d="m7.8301 12.291c-0.62104-0.03024-0.59587 0.65219-0.02505 0.34357 0.063172 0.38163 0.97018 0.56819 0.48751 0.24171 0.5846-0.29-0.2322-0.392-0.4625-0.585z"/>
 <path id="path2291" stroke-width=".069439" fill="#fff" d="m15.479 12.463c-0.49555 0.06317-0.07112 0.38798 0 0z"/>
 <path id="path2289" stroke-width=".069439" fill="#fff" d="m15.91 12.623c-0.28968 0.02502-0.92884 0.15804-0.38061 0.31242-1.0769 1.0364 0.81064-0.17212 0.38061-0.31242z"/>
 <path id="path2287" stroke-width=".069439" fill="#fff" d="m16.014 12.916c-0.1124 0.47463-0.80932 0.89035 0.0073 0.94181 0.31776 0.32403 1.4516 0.21774 0.56328-0.08112-0.1685-0.16116 0.45388-0.38422-0.1222-0.34806-0.54367 0.21609-0.16629-0.39192-0.44836-0.51263z"/>
 <path id="path2285" stroke-width=".069439" fill="#fff" d="m15.051 13.402c-0.33069 0.34934 0.29509 0.42317 0.03092 0.21392 0.06003-0.02593 0.1014-0.2451-0.03092-0.21392z"/>
 <path id="path2283" stroke-width=".069439" fill="#fff" d="m17.225 13.633c-0.04212 0.15541 0.29058-0.10515 0 0z"/>
 <path id="path2281" stroke-width=".069439" fill="#fff" d="m11.387 13.986c-0.53646-0.05005-0.06186 0.44247 0 0z"/>
 <path id="path2279" stroke-width=".069439" fill="#fff" d="m11.186 14.391c-0.04543 0.31467 0.9019 0.1949 0.24229 0.43797 1.0534 0.08942 0.49653-0.51402-0.24229-0.43797z"/>
 <path id="path2277" stroke-width=".069439" fill="#fff" d="m12.809 14.443c-1.1191 0.08455 1.3394 0.36754 0.15534-0.04729z"/>
 <path id="path2275" stroke-width=".069439" fill="#fff" d="m9.0781 14.582c-0.60836 0.1326 0.56045 0.11971 0 0z"/>
 <path id="path2273" stroke-width=".069439" fill="#fff" d="m10.172 14.59c-1.0934 0.1832 0.20375 0.54382 0.49112 0.12637-0.10768-0.14492-0.32958-0.10757-0.49112-0.12637z"/>
 <path id="path2271" stroke-width=".069439" fill="#fff" d="m12.695 14.721c-1.2164 0.31159 0.90194 0.23972 0 0z"/>
 <path id="path2269" stroke-width=".069439" fill="#fff" d="m9.084 14.93c-0.54278 0.09889 0.44227 0.13891 0 0z"/>
 <path id="path2267" stroke-width=".069439" fill="#fff" d="m18.492 14.934c-0.31826 0.3527 0.37504 0.24115 0 0z"/>
 <path id="path2265" stroke-width=".069439" fill="#fff" d="m11.797 15.324c-0.10132 0.54463 1.0465-0.02452 0.16457 0.01696-0.05433-0.01445-0.10845-0.02068-0.16457-0.01696z"/>
 <path id="path2263" stroke-width=".069439" fill="#fff" d="m9.8945 15.387c-0.095851 0.53679 1.5003 0.16446 0.48801 0.03484-0.16184-0.02286-0.32583-0.01642-0.48801-0.03484z"/>
 <path id="path2261" stroke-width=".069439" fill="#fff" d="m16.848 15.416c-0.40402 0.69657 0.74804 0.39592 0.46147 0.263-0.1716-0.02606-0.41258-0.05756-0.46147-0.263z"/>
 <path id="path2259" stroke-width=".069439" fill="#fff" d="m14.012 15.533c-0.6335 0.52714 1.2013 0.25009 0.19839 0.04467l-0.06052-0.03309z"/>
 <path id="path2257" stroke-width=".069439" fill="#fff" d="m4.3887 15.555c-0.35489 0.20999 0.43255 0.06532 0 0z"/>
 <path id="path2255" stroke-width=".069439" fill="#fff" d="m13.141 15.555c-0.30043 0.18242 0.29576 0.165 0 0z"/>
 <path id="path2253" stroke-width=".069439" fill="#fff" d="m11.891 15.693c-0.53658 0.28814 0.51092 0.31479 0 0z"/>
 <path id="path2251" stroke-width=".069439" fill="#fff" d="m16.059 15.693c-0.30168 0.17545 0.29066 0.17147 0 0z"/>
 <path id="path2249" stroke-width=".069439" fill="#fff" d="m15.742 15.725c-1.2909 0.17526 0.72113 0.7824 0 0z"/>
 <path id="path2247" stroke-width=".069439" fill="#fff" d="m9.9824 15.832c-0.60296 0.13401 0.5577 0.12014 0 0z"/>
 <path id="path2245" stroke-width=".069439" fill="#fff" d="m13.523 15.832c-0.62936 0.36067 0.91202 0.80808 0.19605 0.22754-0.03229-0.09522-0.03432-0.30122-0.19605-0.22754z"/>
 <path id="path2243" stroke-width=".069439" fill="#fff" d="m2.7949 15.852c-0.47647 0.16268 0.3855 0.20163 0 0z"/>
 <path id="path2241" stroke-width=".069439" fill="#fff" d="m13.84 15.902c-0.269 0.1336 0.16761 0.19875 0 0z"/>
 <path id="path2239" stroke-width=".069439" fill="#fff" d="m9.5859 15.924c-0.027175 0.15175 0.29919-0.10137 0 0z"/>
 <path id="path2237" stroke-width=".069439" fill="#fff" d="m12.516 16.041c-0.5168 0.21968 0.47405 0.07096 0 0z"/>
 <path id="path2235" stroke-width=".069439" fill="#fff" d="m2.9863 16.064c0.0923 0.13378 0.33481-0.12171 0 0z"/>
 <path id="path2233" stroke-width=".069439" fill="#fff" d="m2.8359 16.164c-0.33226 0.35453 0.33468 0.96623 0.21982 1.3827 0.38515-0.07267 0.04896-0.78746 0.23794-0.95611-0.54486 0.11648-0.15184-0.39646-0.45775-0.42655z"/>
 <path id="path2231" stroke-width=".069439" fill="#fff" d="m3.459 16.18c-0.35289 0.1241 0.22926 0.16055 0 0z"/>
 <path id="path2229" stroke-width=".069439" fill="#fff" d="m18.49 16.203c-0.64951 0.08161 0.000019 0.31979 0.0452 0.02501z"/>
 <path id="path2227" stroke-width=".069439" fill="#fff" d="m17.549 16.363c-0.3259 0.2443 0.42288-0.04065 0 0z"/>
 <path id="path2225" stroke-width=".069439" fill="#fff" d="m18.615 16.537c-0.56678 0.12683 0.83971 0.28834 0 0z"/>
 <path id="path2223" stroke-width=".069439" fill="#fff" d="m13.801 16.805c-0.60295 0.13401 0.55769 0.12014 0 0z"/>
 <path id="path2221" stroke-width=".069439" fill="#fff" d="m15.051 16.805c-0.34798 0.16765 0.33094 0.12216 0 0z"/>
 <path id="path2219" stroke-width=".069439" fill="#fff" d="m17.65 16.805c-0.50404 0.30112 0.35035 0.35466 0 0z"/>
 <path id="path2217" stroke-width=".069439" fill="#fff" d="m16.92 16.973c-0.31393 0.17571 0.43749 0.05795 0 0z"/>
 <path id="path2215" stroke-width=".069439" fill="#fff" d="m19.131 16.992c-0.46789 0.23244 0.37508 0.37856 0 0z"/>
 <path id="path2213" stroke-width=".069439" fill="#fff" d="m19.65 17.037c0.09052 0.1342 0.3371-0.12132 0 0z"/>
 <path id="path2211" stroke-width=".069439" fill="#fff" d="m17.586 17.291c-0.5168 0.21967 0.47405 0.07096 0 0z"/>
 <path id="path2209" stroke-width=".069439" fill="#fff" d="m18.488 17.438c-0.38465 0.2008 0.36492 0.12146 0 0z"/>
 <path id="path2207" stroke-width=".069439" fill="#fff" d="m19.072 17.477c-0.38418 0.49183 0.58772 0.03589 0 0z"/>
 <path id="path2205" stroke-width=".36174" fill="#fff" d="m17.812 18.44c-0.1082 1.364 1.6657-0.32465 0 0z"/>
 <path id="path2203" stroke-width=".33599" fill="#fff" d="m16.917 18.296c-0.13927 1.2603 1.5722-0.28234 0 0z"/>
 <path id="path2201" stroke-width=".28307" fill="#fff" d="m17.91 17.882c-1.6052 0.87488 1.494 0.69762 0 0z"/>
 <path id="path2199" stroke-width=".069439" fill="#fff" d="m4.3574 20.139c-0.35537 0.15453 0.33391 0.0894 0 0z"/>
 <path id="path2197" stroke-width=".18705" fill="#fff" d="m6.5146 17.811c-2.0543 0.30069 0.82308 2.8414 0.19621 0.33891 0.73255 0.03909 0.34261-0.64859-0.19621-0.33891z"/>
 <path id="path2195" stroke-width=".27168" fill="#fff" d="m16.976 19.88c-1.3609 0.65175 1.2938 0.47388 0 0z"/>
 <path id="path1541" stroke-width=".26739" fill="#fff" d="m16.949 20.713c-1.7343-0.11425 0.13685 0.90592 0 0z"/>
 <path id="path2317-7" d="m4.1074 17.623c-2.2865 0.05535 1.6502 1.3965 0.51973 0.16592-0.22929 0.56065-0.20319-0.2922-0.51973-0.16592z" stroke-width=".15055" fill="#fff"/>
 <path id="path2315-5" d="m3.7875 18.47c-1.1265 0.38029 0.66603 0.57376 0 0z" stroke-width=".21834" fill="#fff"/>
 <path id="path2311-3" d="m4.7714 18.648c-0.47472 0.29003 0.4422 0.24317 0 0z" stroke-width=".069439" fill="#fff"/>
 <path id="path2305-5" d="m4.1484 18.956c-0.6328 0.10778 0.48548 0.10598 0 0z" stroke-width=".069439" fill="#fff"/>
 <path id="path2301-6" d="m3.8202 19.122c-0.0649 0.21113 0.24326 0.0088 0 0z" stroke-width=".069439" fill="#fff"/>
 <path id="path2299-2" d="m3.7372 19.35c-0.1409 0.95536 2.0681 0.59719 0.25988 0.10466l-0.11509-0.08099z" stroke-width=".15489" fill="#fff"/>
 <path id="path2297-9" d="m4.7773 19.601c-0.34188 0.20259 0.40841 0.03604 0 0z" stroke-width=".069439" fill="#fff"/>
 <path id="path2273-1" d="m5.05 20.454c-0.9617-0.551-0.1872 0.55 0.2997 0.409 0.0086-0.18-0.1867-0.292-0.2997-0.409z" stroke-width=".069439" fill="#fff"/>
 <path id="path2287-2" d="m6.1409 20.461c-0.2297 0.475-1.6538 0.891 0.0149 0.942 0.6494 0.324 2.9663 0.218 1.151-0.081-0.3443-0.161 0.9275-0.384-0.2497-0.348-1.1109 0.216-0.3398-0.392-0.9162-0.513z" stroke-width=".099263" fill="#fff"/>
 <path id="path2219-7" d="m17.257 19.267c-0.50404 0.30112 0.35035 0.35466 0 0z" stroke-width=".069439" fill="#fff"/>
 <path id="path2233-0" d="m16.798 20.381c-0.8812-0.43665-1.8916 0.87026-2.8134 0.81488 0.31099 0.61619 1.6739-0.17479 2.1058 0.0843-0.46867-0.86726 0.7702-0.3812 0.7076-0.89918z" stroke-width=".13217" fill="#fff"/>
</svg>
