<?xml version="1.0" encoding="UTF-8" standalone="no"?>
<svg id="svg4355" xmlns="http://www.w3.org/2000/svg" viewBox="0 0 24 24" height="24" width="24" version="1.1">
 <circle id="path5263" cx="9" cy="9" r="1" fill="#fff"/>
 <circle id="circle5265" cy="15" cx="13" r="1" fill="#fff"/>
 <circle id="circle5267" cx="8" cy="17" r="1" fill="#fff"/>
 <circle id="circle5269" cy="11" cx="15" r="1" fill="#fff"/>
 <circle id="circle5271" cx="17.529" cy="19" r="1" fill="#fff"/>
 <circle id="circle5273" cy="7" cx="13" r="1" fill="#fff"/>
 <circle id="circle5275" cx="13" cy="7" r="1" fill="#fff"/>
 <circle id="path5277" cx="10.5" cy="5.5" r=".5001" fill="#fff"/>
 <circle id="circle5279" cy="10" cx="6" r=".5001" fill="#fff"/>
 <circle id="circle5281" cx="7.75" cy="12" r=".5001" fill="#fff"/>
 <circle id="circle5283" cy="7.25" cx="18.5" r=".5001" fill="#fff"/>
 <circle id="circle5285" cx="18" cy="13" r=".5001" fill="#fff"/>
 <circle id="circle5287" cy="17" cx="12" r=".5001" fill="#fff"/>
 <circle id="circle5289" cx="6" cy="6" r=".5001" fill="#fff"/>
 <circle id="circle5291" cy="4" cx="15" r=".5001" fill="#fff"/>
 <circle id="circle5293" cx="4.5" cy="15.5" r=".5001" fill="#fff"/>
 <circle id="circle5295" cy="20" cx="11" r=".5001" fill="#fff"/>
 <circle id="circle5297" cx="7" cy="3" r=".5001" fill="#fff"/>
 <circle id="circle5299" cy="10" cx="13" r=".5001" fill="#fff"/>
 <circle id="circle5301" cx="13" cy="10" r=".5001" fill="#fff"/>
 <circle id="circle5305" cy="11" cx="20" r=".5001" fill="#fff"/>
 <circle id="circle5307" cx="4.5" cy="12.5" r=".5001" fill="#fff"/>
 <circle id="circle5281-3" cx="11" cy="12" r=".5001" fill="#fff"/>
 <circle id="circle5281-3-6" cx="16.381" cy="15.408" r=".5001" fill="#fff"/>
 <circle id="circle5281-3-7" cx="8.5521" cy="13.079" r=".5001" fill="#fff"/>
 <circle id="circle5281-3-5" cx="13.2" cy="11.491" r=".5001" fill="#fff"/>
</svg>
