<?xml version="1.0" encoding="UTF-8" standalone="no"?>
<svg id="svg4355" xmlns="http://www.w3.org/2000/svg" viewBox="0 0 22.499999 22.499999" height="24" width="24" version="1.1">
 <g id="layer2" transform="translate(0,-105.5)">
  <path id="path919" style="color-rendering:auto;text-decoration-color:#FFFFFF;color:#FFFFFF;font-variant-numeric:normal;shape-rendering:auto;font-variant-ligatures:normal;text-decoration-line:none;font-variant-position:normal;mix-blend-mode:normal;solid-color:#FFFFFF;font-feature-settings:normal;shape-padding:0;font-variant-alternates:normal;text-indent:0;dominant-baseline:auto;font-variant-caps:normal;image-rendering:auto;white-space:normal;text-decoration-style:solid;text-orientation:mixed;isolation:auto;text-transform:none" d="m16.002 2.2656c-2.029-0.049-4.19 0.3592-5.863 1.1211-5.5377 2.8415-9.4171 8.1903-7.4632 12.566 0.92435 2.0702 3.3464 3.1286 6.1719 3.0098v-2.02c-1.9454 0.05-3.6523-0.565-4.2657-1.939-1.4791-3.313 2.0496-7.7852 6.389-10.012 3.779-1.939 6.608-1.2548 10.894-0.0604-0.861-1.7847-3.254-2.6028-5.863-2.666z" fill-rule="evenodd" transform="matrix(.93750 0 0 .93750 0 105.5)" fill="#fff"/>
  <path id="path917" style="color-rendering:auto;text-decoration-color:#FFFFFF;color:#FFFFFF;font-variant-numeric:normal;shape-rendering:auto;font-variant-ligatures:normal;text-decoration-line:none;font-variant-position:normal;mix-blend-mode:normal;solid-color:#FFFFFF;font-feature-settings:normal;shape-padding:0;font-variant-alternates:normal;text-indent:0;dominant-baseline:auto;font-variant-caps:normal;image-rendering:auto;white-space:normal;text-decoration-style:solid;text-orientation:mixed;isolation:auto;text-transform:none" d="m16.012 4.6855c-1.872-0.0656-3.98 0.4193-5.973 1.5098-3.3673 1.8427-5.6369 5.5157-4.2929 8.1777 0.54612 1.0817 1.7 1.7907 3.1016 1.9531v-2.428c-0.3412-0.193-0.6228-0.457-0.793-0.794-0.8183-1.621 0.6472-4.0001 2.8363-5.1978 3.1468-1.722 7.4069-1.6644 8.5391 0.63672 0.21656 0.44016 0.33926 0.90441 0.38086 1.3828h1.3047v3.4763c0.917-1.968 1.104-4.0096 0.198-5.8493-0.879-1.7873-2.895-2.7827-5.302-2.8672z" fill-rule="evenodd" transform="matrix(.93750 0 0 .93750 0 105.5)" fill="#fff"/>
  <path id="path915" style="color-rendering:auto;text-decoration-color:#FFFFFF;color:#FFFFFF;font-variant-numeric:normal;shape-rendering:auto;font-variant-ligatures:normal;text-decoration-line:none;font-variant-position:normal;mix-blend-mode:normal;solid-color:#FFFFFF;font-feature-settings:normal;shape-padding:0;font-variant-alternates:normal;text-indent:0;dominant-baseline:auto;font-variant-caps:normal;image-rendering:auto;white-space:normal;text-decoration-style:solid;text-orientation:mixed;isolation:auto;text-transform:none" d="m14.762 7.375c-0.992-0.031-2.086 0.2077-3.174 0.7812-0.841 0.4432-1.575 1.0693-2.1173 1.7696h5.5543c-0.089-0.1063-0.189-0.2053-0.298-0.2949 0.22114 0.068713 0.41914 0.17385 0.60156 0.29492h3.1934c-0.046-0.15-0.1-0.2983-0.167-0.4434-0.575-1.2542-1.941-2.0557-3.593-2.1074z" fill-rule="evenodd" transform="matrix(.93750 0 0 .93750 0 105.5)" fill="#fff"/>
  <path id="path907" style="color-rendering:auto;text-decoration-color:#FFFFFF;color:#FFFFFF;font-variant-numeric:normal;shape-rendering:auto;font-variant-ligatures:normal;text-decoration-line:none;font-variant-position:normal;mix-blend-mode:normal;solid-color:#FFFFFF;font-feature-settings:normal;shape-padding:0;font-variant-alternates:normal;text-indent:0;dominant-baseline:auto;font-variant-caps:normal;image-rendering:auto;white-space:normal;text-decoration-style:solid;text-orientation:mixed;isolation:auto;text-transform:none" d="m8.8477 10.98c-0.34936 0.80309-0.43096 1.6331-0.085937 2.3633 0.022943 0.04856 0.059323 0.08843 0.085937 0.13477z" fill-rule="evenodd" transform="matrix(.93750 0 0 .93750 0 105.5)" fill="#fff"/>
  <path id="path905" style="color-rendering:auto;text-decoration-color:#FFFFFF;color:#FFFFFF;font-variant-numeric:normal;shape-rendering:auto;font-variant-ligatures:normal;text-decoration-line:none;font-variant-position:normal;mix-blend-mode:normal;solid-color:#FFFFFF;font-feature-settings:normal;shape-padding:0;font-variant-alternates:normal;text-indent:0;dominant-baseline:auto;font-variant-caps:normal;image-rendering:auto;white-space:normal;text-decoration-style:solid;text-orientation:mixed;isolation:auto;text-transform:none" d="m11.375 12.406v3.6387c0.40765-0.13439 0.81766-0.30058 1.2266-0.52734 1.3219-0.73307 2.3744-1.9132 2.7695-3.1113z" fill-rule="evenodd" transform="matrix(.93750 0 0 .93750 0 105.5)" fill="#fff"/>
  <path id="path903" style="color-rendering:auto;text-decoration-color:#FFFFFF;color:#FFFFFF;font-variant-numeric:normal;shape-rendering:auto;font-variant-ligatures:normal;text-decoration-line:none;font-variant-position:normal;mix-blend-mode:normal;solid-color:#FFFFFF;font-feature-settings:normal;shape-padding:0;font-variant-alternates:normal;text-indent:0;dominant-baseline:auto;font-variant-caps:normal;image-rendering:auto;white-space:normal;text-decoration-style:solid;text-orientation:mixed;isolation:auto;text-transform:none" d="m16.088 12.406c-0.35635 1.3088-1.5338 2.6656-3.0527 3.4551-0.53 0.27547-1.0916 0.4795-1.6602 0.65234v1.2129h2.1953c0.08389-0.04134 0.16836-0.07569 0.25195-0.11914h0.002c2.2675-1.1785 4.0687-3.1886 4.6562-5.2012z" fill-rule="evenodd" transform="matrix(.93750 0 0 .93750 0 105.5)" fill="#fff"/>
  <path id="path901" style="color-rendering:auto;text-decoration-color:#FFFFFF;color:#FFFFFF;font-variant-numeric:normal;shape-rendering:auto;font-variant-ligatures:normal;text-decoration-line:none;font-variant-position:normal;mix-blend-mode:normal;solid-color:#FFFFFF;font-feature-settings:normal;shape-padding:0;font-variant-alternates:normal;text-indent:0;dominant-baseline:auto;font-variant-caps:normal;image-rendering:auto;white-space:normal;text-decoration-style:solid;text-orientation:mixed;isolation:auto;text-transform:none" d="m18.561 13.982c-0.90519 1.379-2.227 2.6887-3.7461 3.7441h2.9609c0.27213-0.24202 0.53471-0.48885 0.78516-0.74219z" fill-rule="evenodd" transform="matrix(.93750 0 0 .93750 0 105.5)" fill="#fff"/>
  <path id="path18" style="color-rendering:auto;text-decoration-color:#FFFFFF;color:#FFFFFF;font-variant-numeric:normal;shape-rendering:auto;font-variant-ligatures:normal;text-decoration-line:none;font-variant-position:normal;mix-blend-mode:normal;solid-color:#FFFFFF;font-feature-settings:normal;shape-padding:0;font-variant-alternates:normal;text-indent:0;dominant-baseline:auto;font-variant-caps:normal;image-rendering:auto;white-space:normal;text-decoration-style:solid;text-orientation:mixed;isolation:auto;text-transform:none" d="m2.3633 18.982c1.6291 3.077 7.9247 3.057 11.731 1.288h-5.2463v-0.327c-1.9696 0.102-3.9816-0.342-6.4844-0.961z" fill-rule="evenodd" transform="matrix(.93750 0 0 .93750 0 105.5)" fill="#fff"/>
  <rect id="rect837-3" height="7.3688" width="9.1189" stroke="#fff" y="115.99" x="9.4607" stroke-width=".79594" fill="none"/>
 </g>
</svg>
