<?xml version="1.0" encoding="UTF-8" standalone="no"?>
<svg id="svg4355" xmlns="http://www.w3.org/2000/svg" viewBox="0 0 24 24" height="24" width="24" version="1.1" xmlns:xlink="http://www.w3.org/1999/xlink">
 <circle id="path4512" stroke-linejoin="bevel" cx="12" stroke-linecap="round" stroke="#fff" cy="12" r="5" stroke-width="2" fill="none"/>
 <path id="path4514" d="m12 1v3" stroke="#fff" stroke-width="2" fill="none"/>
 <use id="use4516" xlink:href="#path4514" transform="rotate(45,12,12)" height="100%" width="100%" y="0" x="0"/>
 <use id="use4518" xlink:href="#use4516" transform="rotate(45,12,12)" height="100%" width="100%" y="0" x="0"/>
 <use id="use4520" xlink:href="#use4518" transform="rotate(45,12,12)" height="100%" width="100%" y="0" x="0"/>
 <use id="use4522" xlink:href="#use4520" transform="rotate(45,12,12)" height="100%" width="100%" y="0" x="0"/>
 <use id="use4524" xlink:href="#use4522" transform="rotate(45,12,12)" height="100%" width="100%" y="0" x="0"/>
 <use id="use4526" xlink:href="#use4524" transform="rotate(45,12,12)" height="100%" width="100%" y="0" x="0"/>
 <use id="use4528" xlink:href="#use4526" transform="rotate(45,12,12)" height="100%" width="100%" y="0" x="0"/>
 <circle id="circle4609" cy="12" cx="15.75" r="6" fill="#fff"/>
</svg>
