<?xml version="1.0" encoding="UTF-8"?>
<svg xmlns="http://www.w3.org/2000/svg"
     width="128" height="128" version="1.1">
  <path fill="#fff" d="M 54.039062 15.720703 L 47.564453 21.246094 L 39.341797 19.044922 L 42.595703 26.910156 L 37.960938 34.048828 L 46.447266 33.384766 L 51.804688 40 L 53.794922 31.722656 L 61.740234 28.671875 L 54.486328 24.220703 L 54.039062 15.720703 z M 56.847656 31.896484 L 54.78125 32.689453 L 53.455078 38.201172 L 95.193359 79.939453 L 100.76172 78.208984 L 101.33008 76.378906 L 56.847656 31.896484 z M 45.595703 34.767578 L 42.964844 34.972656 L 24.607422 90.044922 L 27.085938 93.550781 L 30.683594 93.503906 L 48.900391 38.847656 L 45.595703 34.767578 z M 104.26758 71.060547 L 101.74023 79.1875 L 93.613281 81.714844 L 100.5625 86.628906 L 100.45312 95.140625 L 107.27539 90.048828 L 115.33594 92.783203 L 112.60156 84.722656 L 117.69336 77.900391 L 109.18164 78.009766 L 104.26758 71.060547 z M 93.419922 83.359375 L 36.771484 94.689453 L 31.361328 101.94141 L 31.623047 102.71289 L 99.267578 89.183594 L 99.289062 87.511719 L 93.419922 83.359375 z M 21.289062 87.873047 L 18.763672 96.001953 L 10.634766 98.529297 L 17.583984 103.44336 L 17.476562 111.95312 L 24.296875 106.86328 L 32.357422 109.59766 L 29.625 101.53516 L 34.714844 94.714844 L 26.205078 94.822266 L 21.289062 87.873047 z "/>
</svg>
