<?xml version="1.0" encoding="UTF-8" standalone="no"?>
<!-- Created with Inkscape (http://www.inkscape.org/) -->

<svg
   xmlns:dc="http://purl.org/dc/elements/1.1/"
   xmlns:cc="http://creativecommons.org/ns#"
   xmlns:rdf="http://www.w3.org/1999/02/22-rdf-syntax-ns#"
   xmlns:svg="http://www.w3.org/2000/svg"
   xmlns="http://www.w3.org/2000/svg"
   xmlns:sodipodi="http://sodipodi.sourceforge.net/DTD/sodipodi-0.dtd"
   xmlns:inkscape="http://www.inkscape.org/namespaces/inkscape"
   width="48"
   height="48"
   id="svg2"
   sodipodi:version="0.32"
   inkscape:version="0.92.3 (2405546, 2018-03-11)"
   version="1.0"
   sodipodi:docname="btn-cst-art.svg"
   inkscape:output_extension="org.inkscape.output.svg.inkscape"
   inkscape:export-filename="/home/lab/projects/stellarium/stellarium-mobile/data/qml/images/starlore.png"
   inkscape:export-xdpi="240"
   inkscape:export-ydpi="240">
  <defs
     id="defs4">
    <inkscape:perspective
       sodipodi:type="inkscape:persp3d"
       inkscape:vp_x="0 : 526.18109 : 1"
       inkscape:vp_y="0 : 1000 : 0"
       inkscape:vp_z="744.09448 : 526.18109 : 1"
       inkscape:persp3d-origin="372.04724 : 350.78739 : 1"
       id="perspective10" />
  </defs>
  <sodipodi:namedview
     id="base"
     pagecolor="#ffffff"
     bordercolor="#666666"
     borderopacity="1.0"
     gridtolerance="10000"
     guidetolerance="10"
     objecttolerance="10"
     inkscape:pageopacity="0.0"
     inkscape:pageshadow="2"
     inkscape:zoom="7.9195959"
     inkscape:cx="46.699353"
     inkscape:cy="24.990324"
     inkscape:document-units="px"
     inkscape:current-layer="layer1"
     showgrid="true"
     inkscape:snap-nodes="false"
     inkscape:snap-bbox="true"
     inkscape:window-width="1920"
     inkscape:window-height="1025"
     inkscape:window-x="0"
     inkscape:window-y="27"
     inkscape:window-maximized="1"
     inkscape:snap-global="false">
    <inkscape:grid
       type="xygrid"
       id="grid2465"
       visible="true"
       enabled="true"
       empspacing="8" />
  </sodipodi:namedview>
  <metadata
     id="metadata7">
    <rdf:RDF>
      <cc:Work
         rdf:about="">
        <dc:format>image/svg+xml</dc:format>
        <dc:type
           rdf:resource="http://purl.org/dc/dcmitype/StillImage" />
        <dc:title />
      </cc:Work>
    </rdf:RDF>
  </metadata>
  <g
     inkscape:label="Layer 1"
     inkscape:groupmode="layer"
     id="layer1">
    <path
       style="fill:#ffffff;fill-opacity:1;fill-rule:evenodd;stroke:#000000;stroke-width:0;stroke-linecap:butt;stroke-linejoin:miter;stroke-miterlimit:4;stroke-opacity:1;stroke-dasharray:none;display:inline;"
       d="m 31.095139,0.25 0.251431,6.8907905 -6.073035,3.3099025 6.633921,1.896903 1.257157,6.794009 3.868175,-5.729421 6.82733,0.890383 L 39.624466,8.8634881 42.58362,2.6308068 36.104426,4.9922575 31.095139,0.25 z m -14.466977,14.052567 -7.426897,7.432763 2.475632,2.477588 6.189081,-6.193969 3.713449,0 0,1.238793 -8.664714,7.432763 0,8.671557 -8.664713,0 0,6.193969 2.4756326,0 0,-2.477588 9.9025294,0 0,-6.193969 1.237816,0 4.951265,4.955175 0,9.910351 6.189081,0 0,-2.477588 -2.475632,0 0,-9.91035 -4.951265,-4.955175 6.189081,-6.193969 0,6.193969 9.902529,0 0,-3.716382 -6.189081,0 0,-7.432763 -4.951264,-4.955175 -9.90253,0 z"
       id="path5889"
       inkscape:label="TheObject"
       inkscape:connector-curvature="0"
       transform="matrix(0.89618675,0,0,0.89618675,2.7187867,2.2236608)" />
  </g>
</svg>
