<?xml version="1.0" encoding="UTF-8" standalone="no"?>
<svg id="svg4355" xmlns="http://www.w3.org/2000/svg" viewBox="0 0 22.499999 22.499999" height="24" width="24" version="1.1" xmlns:xlink="http://www.w3.org/1999/xlink">
 <g id="layer2" transform="translate(0,-105.5)">
  <path id="path18" style="color-rendering:auto;text-decoration-color:#FFFFFF;color:#FFFFFF;font-variant-numeric:normal;shape-rendering:auto;font-variant-ligatures:normal;text-decoration-line:none;font-variant-position:normal;mix-blend-mode:normal;solid-color:#FFFFFF;font-feature-settings:normal;shape-padding:0;font-variant-alternates:normal;text-indent:0;dominant-baseline:auto;font-variant-caps:normal;image-rendering:auto;white-space:normal;text-decoration-style:solid;text-orientation:mixed;isolation:auto;text-transform:none" d="m18.271 118.4c-1.152-1.1733-3.1225-1.4542-4.3312-0.27327-0.89356 0.873-1.0513 2.4195-0.05869 3.4154 0.73483 0.73733 1.9874 0.91122 2.7599 0.14353 0.57364-0.57004 0.6721-1.5757 0.01016-2.2291-0.49374-0.48735-1.3317-0.60045-1.8546-0.071-0.3676 0.37212-0.4066 0.99701-0.02541 1.4539-0.03578-0.0274-0.08564-0.0237-0.11773-0.0558-0.5052-0.50684-0.42-1.3659 0.0793-1.8537 0.73584-0.71892 2.0112-0.53907 2.76 0.22357 1.0766 1.0964 0.89192 2.8833-0.15504 3.8904-1.4786 1.4222-3.9733 1.0634-5.4282-0.43893-1.2671-1.3085-1.3673-2.7152-1.1586-4.958-1.4064 1.4149-0.79951 4.3315 0.3757 5.7048 1.8567 1.9173 5.0444 2.3784 6.9976 0.49961 1.4457-1.3906 1.7051-3.8642 0.14673-5.4513zm-2.5325 1.797-0.35672 0.37391c-0.13643-0.13034-0.12232-0.29136-0.03561-0.38093 0.08266-0.0854 0.17095-0.0719 0.22105-0.0234 0.02616 0.0257 0.02633 0.0164 0.03468 0.008 0.02592-0.0262 0.08578 0.0158 0.13657 0.0225z" fill-rule="evenodd" fill="#fff"/>
  <use id="use4532" xlink:href="#path18" transform="matrix(-1.275 -.54563 .80908 -.97687 -69.908 239.21)" height="100%" width="100%" y="0" x="0"/>
 </g>
</svg>
