<?xml version="1.0" encoding="UTF-8" standalone="no"?>
<svg id="svg4355" xmlns="http://www.w3.org/2000/svg" viewBox="0 0 24 24" height="24" width="24" version="1.1">
 <path id="path6658" style="color-rendering:auto;text-decoration-color:#FFFFFF;color:#FFFFFF;font-variant-numeric:normal;shape-rendering:auto;font-variant-ligatures:normal;text-decoration-line:none;font-variant-position:normal;mix-blend-mode:normal;solid-color:#FFFFFF;font-feature-settings:normal;shape-padding:0;font-variant-alternates:normal;text-indent:0;dominant-baseline:auto;font-variant-caps:normal;image-rendering:auto;white-space:normal;text-decoration-style:solid;text-orientation:mixed;isolation:auto;text-transform:none" d="m11.078 3.5973c-1.6779 0.2875-0.936 2.4097-2.0506 3.1107-1.2682 0.5842-3.4529 1.0568-2.8614 2.9157-0.3204 0.6923-0.5269 1.5363 0.4885 1.1933-0.60491 1.0875 2.1304 0.69659 1.7535 0.42414 0.28384-1.4119 3.1817-0.42487 1.3282 0.48646-0.15431 0.76144-0.38485 1.2991-1.1565 0.9915-1.4506 0.08514-3.0311-0.09083-3.899 1.3373-0.82022 0.85415-2.7674-0.33401-2.2381 1.3453 0.046636 1.5624 0.050626 3.1203-0.0013 4.6804 0.20474 1.5785 2.4984 0.44758 3.613 0.79056 4.3493 0.006 8.699 0.01975 13.048-0.04711 0.91867-0.55614 2.7412 0.84824 2.8274-0.96161-0.1233-1.4154 0.13694-3.1576-0.45704-4.3489-1.1117-0.23566-2.9995-0.06141-2.6444-1.8335 0.16689-1.6107 0.43486-3.2629-0.04076-4.8523-0.378-1.2361-0.923-2.6182-2.083-3.3019-1.605-0.7993-3.68-0.2558-5.079-1.5342-0.218-0.0756-0.389-0.2362-0.548-0.3963z" fill="#fff"/>
</svg>
