<?xml version="1.0" encoding="UTF-8" standalone="no"?>
<svg id="svg4355" xmlns="http://www.w3.org/2000/svg" viewBox="0 0 24 24" height="24" width="24" version="1.1">
 <ellipse id="path925-3" rx="1.3869" ry="1.564" transform="rotate(-45.758)" cy="18.053" cx="-1.6006" fill="#fff"/>
 <path id="circle4737" d="m11.878 2.5903a9.4134 9.4134 0 0 0 -9.2914 9.4097 9.4134 9.4134 0 0 0 9.2784 9.406 10.771 15.286 0 0 1 -2.2847 -9.406 10.771 15.286 0 0 1 2.2977 -9.4097z" fill="#fff"/>
 <ellipse id="path915" rx=".79674" ry=".44263" transform="rotate(27.207)" cy="-2.8443" cx="15.45" fill="#fff"/>
 <ellipse id="path917" rx=".94429" ry=".82625" cy="6.6294" cx="17.843" fill="#fff"/>
 <ellipse id="path919" rx=".70822" ry=".47214" transform="rotate(24.305)" cy=".78872" cx="19.092" fill="#fff"/>
 <ellipse id="path921" rx="1.9181" ry="1.682" cy="12.502" cx="14.685" fill="#fff"/>
 <ellipse id="path923" rx="1.7115" ry="2.0066" cy="15.471" cx="13.687" fill="#fff"/>
 <ellipse id="path925" rx="1.3869" ry="1.564" transform="rotate(-45.758)" cy="15.563" cx="5.5558" fill="#fff"/>
 <ellipse id="path927" rx="1.682" ry="1.4754" cy="11.306" cx="12.363" fill="#fff"/>
 <ellipse id="path929" rx=".59018" ry=".44263" cy="17.164" cx="11.528" fill="#fff"/>
 <ellipse id="path931" rx="1.2394" ry=".91478" cy="19.643" cx="14.538" fill="#fff"/>
 <ellipse id="path933" rx="1.3574" ry=".76723" transform="rotate(-48.548)" cy="24.827" cx="-2.2423" fill="#fff"/>
 <circle id="path935" cx="12" stroke="#fff" cy="12" r="9.6401" stroke-width=".94429" fill="none"/>
 <ellipse id="path945" rx="1.5488" ry="1.2689" cy="14.963" cx="11.626" fill="#fff"/>
 <ellipse id="path945-7" rx=".82625" ry=".82625" cy="10.646" cx="13.562" fill="#fff"/>
 <circle id="path945-5" cx="13.706" cy="11.922" r=".47214" fill="#fff"/>
 <ellipse id="path945-5-9" rx=".47214" ry=".93120" transform="rotate(-18.114)" cy="16.163" cx="5.8443" fill="#fff"/>
 <ellipse id="path929-1" rx=".79202" ry=".59218" transform="matrix(.61258 -.79041 .78261 .62252 0 0)" cy="13.959" cx=".43769" fill="#fff"/>
</svg>
