<?xml version="1.0" encoding="UTF-8" standalone="no"?>
<svg id="svg4355" xmlns="http://www.w3.org/2000/svg" viewBox="0 0 24 24" height="24" width="24" version="1.1" xmlns:xlink="http://www.w3.org/1999/xlink">
 <circle id="path6056" stroke-linejoin="round" cx="12" stroke-linecap="round" stroke="#fff" cy="3" r="1" fill="#fff"/>
 <use id="use6058" xlink:href="#path6056" transform="rotate(30,12,12)" height="100%" width="100%" y="0" x="0"/>
 <use id="use6060" xlink:href="#use6058" transform="rotate(30,12,12)" height="100%" width="100%" y="0" x="0"/>
 <use id="use6062" xlink:href="#use6060" transform="rotate(30,12,12)" height="100%" width="100%" y="0" x="0"/>
 <use id="use6064" xlink:href="#use6062" transform="rotate(30,12,12)" height="100%" width="100%" y="0" x="0"/>
 <use id="use6066" xlink:href="#use6064" transform="rotate(30,12,12)" height="100%" width="100%" y="0" x="0"/>
 <use id="use6068" xlink:href="#use6066" transform="rotate(30,12,12)" height="100%" width="100%" y="0" x="0"/>
 <use id="use6070" xlink:href="#use6068" transform="rotate(30,12,12)" height="100%" width="100%" y="0" x="0"/>
 <use id="use6072" xlink:href="#use6070" transform="rotate(30,12,12)" height="100%" width="100%" y="0" x="0"/>
 <use id="use6074" xlink:href="#use6072" transform="rotate(30,12,12)" height="100%" width="100%" y="0" x="0"/>
 <use id="use6076" xlink:href="#use6074" transform="rotate(30,12,12)" height="100%" width="100%" y="0" x="0"/>
 <use id="use6078" xlink:href="#use6076" transform="rotate(30,12,12)" height="100%" width="100%" y="0" x="0"/>
</svg>
