<?xml version="1.0" encoding="UTF-8" standalone="no"?>
<svg id="svg4355" xmlns="http://www.w3.org/2000/svg" viewBox="0 0 22.499999 22.499999" height="24" width="24" version="1.1">
 <g id="layer2" transform="translate(0,-105.5)">
  <g id="text5236" aria-label="?" fill="#fff">
   <path id="path5238" stroke-width=".93750" d="m10.098 119.9q-0.6623 0-1.0366-0.51833-0.37435-0.51832-0.37435-1.411 0-0.92146 0.48953-1.7853 0.51832-0.86387 1.2382-1.4686 0.71989-0.63351 1.4398-1.2382 1.699-1.4686 1.699-3.3115 0-0.95026-0.6911-1.5262-0.6623-0.57592-1.6702-0.57592-2.0157 0-2.0157 1.4974 0 0.48953 0.31675 1.0366-0.57592 0.83508-1.3822 0.83508-1.4398 0-1.4398-1.5262t1.3246-2.2749q1.3246-0.77749 3.2827-0.77749t3.2539 0.89267q1.2958 0.86387 1.2958 2.7644 0 1.0942-0.48953 2.0733-0.46073 0.95026-1.1518 1.6126-0.6623 0.66231-1.3534 1.2958-1.6414 1.4686-1.6414 2.678 0 0.57592 0.17278 1.267-0.57592 0.46073-1.267 0.46073zm-1.2382 4.377q0-1.6702 1.5262-1.6702t1.5262 1.6702-1.5262 1.6702-1.5262-1.6702z"/>
  </g>
 </g>
</svg>
